<?xml version="1.0" ?>
<svg viewBox="0 0 512 512" xmlns="http://www.w3.org/2000/svg">
  <g id="Education" fill="#FFFFFF">
    <polygon points="88 228.655 60 212.488 60 391.418 46 436.917 102 436.917 88 391.415 88 228.655"/>
    <path d="M270.0032,329.4135a27.9643,27.9643,0,0,1-14-3.7529L144,260.99v29.3531c0,40.1739,56.4127,72.7412,126,72.7412s126-32.5673,126-72.7412V260.9973L284.0032,325.6606A27.9736,27.9736,0,0,1,270.0032,329.4135Z"/>
    <path d="M270,204.4124a44.1572,44.1572,0,0,1-13.774-2.1713H98.246l171.7563,99.1711L466,188.2527,269.9844,75.0833,98.2477,174.2411h158.02A44.1836,44.1836,0,0,1,270,172.0831c15.4642,0,28,7.2371,28,16.1644S285.464,204.4124,270,204.4124Z"/>
  </g>
</svg>
